<?xml version="1.0" encoding="UTF-8"?>
<svg id="Layer_2" data-name="Layer 2" xmlns="http://www.w3.org/2000/svg" viewBox="0 0 512.71997 512">
  <g id="Recreation">
    <rect width="512" height="512" style="fill: none;"/>
    <g id="Star">
      <path d="M224.3261,185.6019l-3.28946-.10154,35.68333-107.05682,35.40589,108.9723c-.07448.20982-.32491.16244-.94083.04061-1.84104-.3723-3.86481-1.28603-5.68553-1.84782-5.27262-.60236-.17599,9.30664-3.21502,11.39812l-3.4519-4.77176-50.6755.02706-2.01026-1.37398-1.82072-5.28617Z" style="fill: #c31e28;"/>
      <path d="M160.78374,370.72618c-.05412.1557.12183.28431.25721.18954l95.09017-69.08574c.06093-.04738.14215-.04738.20309,0l95.09017,69.08574c.13538.09477.31132-.03383.25721-.18954l-21.93662-67.52218-3.50606,8.14922c-.4738,2.03731.04061,9.00205-1.76656,10.07826-.64301.37903-2.12531-.04738-3.24886.46025-3.07969,1.3943-.75806.99494-4.93424,1.83423-1.6109.32491-3.20825,2.14563-5.2794.92054l-.62269-3.77004,3.05258,2.02376.98817-1.66506c-5.84119-1.94255-6.16606-9.68567-9.76689-13.25263-1.85455-1.84104-5.29295-1.11681-7.10011-3.87158l-3.06609-10.32869-3.06613-.6633,3.37746-6.08484c-2.42986.84606-1.56351,4.78531-4.73115,4.06108l-.73101-8.51474,1.40108-2.3148c-1.7124.98817-2.79538,1.82749-4.72438.67685l.6633,4.06108c-.82573.93405-3.7971-3.63466-4.18291-4.2709-2.19975-3.62793-2.66678-8.81933-6.0104-10.99876-.16244-2.02376,8.25076-10.32869,2.75477-11.12058l-.67007,1.34014c.15566-2.35541-1.43491-3.26918-3.38423-4.0543l-.6904,2.70061,2.67355,1.09649-.64301,3.64821-3.96631-3.18796c-.29104-8.44703,4.22352-17.19865,1.75978-25.3953-.59563-1.95606-2.89688-4.79882-3.30975-7.18133-5.4351.79867-6.15255-2.30803-9.03593-5.51628-.73101-.819-2.45696-1.31308-3.09319-2.32162-.90695-1.43491-.33165-3.01871-.73774-3.66172-.20305-.33165-1.84782-.49408-2.57201-1.14387-3.16768-2.80893-3.53994-6.93768-9.98349-8.29137-4.67026-.98144-5.39449.53469-8.98854,2.56523l1.35369,2.01026c-3.43162-.32487-5.40122,3.41807-8.47413,4.75148l-.6633-1.36047c-1.929,2.53817-5.07635,3.16086-8.11538,3.39101.46703-3.66854-2.26069-5.90212-5.08312-7.79051l2.70061-1.00849-2.06437-.5009.02706-1.52964-4.03398-1.02204,2.01021-3.04581-1.79362,1.28598-2.26069-.99494-1.35369,1.40108,1.02882,1.68534-9.8346-3.70911c-2.00344-2.10502,3.27596-.18954,3.38423-.3452l-1.9561-3.05258-3.76327,1.07616-1.70563-1.40104c-.2166,2.15914-2.17269,2.66-4.0814,2.70739l.6904,1.34014-6.43004.01355,1.68534-2.02381-2.70061-2.7209-1.02204,2.71416-1.68534-2.03731c.4467,3.0052-1.49585,6.51804-4.73793,6.76169l1.23864-2.90366c-1.85459-1.66506-.78517-4.02047-1.59061-5.8818-.92728-2.14563-5.14402-3.2489-3.86477-7.66191h-71.46148c-.16244,0-.23015.20982-.09477.30459l95.09017,69.0857c.06093.04738.08122.12187.06093.18954l-36.31961,111.78797Z" style="fill: #c31e28;"/>
      <path d="M296.47798,199.07113c-.67011-2.51785-.2437-5.08312-2.20653-7.31671l.45348-2.39602h114.51568l-91.05615,66.5543c-2.9037-6.96474-6.87678-13.22557-8.40646-20.74532-.2166-1.0762-.14211-1.02882.92728-.9205l1.0356,4.0543,2.69384-1.00176c-8.27105-11.47929-14.28145-24.55597-17.95672-38.22828Z" style="fill: #c31e28;"/>
    </g>
    <g id="Left_Wreath" data-name="Left Wreath">
      <path d="M204.11547,44.04619c-9.55846,4.68173-19.82918,8.2513-29.56207,12.74084-31.47411,14.51825-59.20442,33.95665-89.21833,50.88888.46152-2.94028,2.52531-6.1559,4.10781-8.75224,15.86483-26.02863,48.07077-44.66633,77.31785-51.283l21.11042-3.59448h16.24432Z" style="fill: #ffb41c;"/>
      <path d="M82.27641,379.76188l-14.32481-23.23327c-11.44513-24.21404-15.19681-55.05518-4.94825-80.31313.45408-1.11909,1.29697-3.5257,2.35153-4.06843,3.18613,22.26788,9.18798,44.14339,17.09762,65.14273,7.67739,20.38274,19.07935,40.14383,21.48279,62.10083-3.69679-2.18727-6.60412-5.47307-9.79794-8.13165-.51043-.42489-1.98594-1.64882-1.3665.00944,20.4249,20.44398,46.04606,36.69643,73.27206,46.53325,7.19478,2.59949,14.90131,5.22427,22.50185,6.25386l-26.84808-11.38347c-23.89264-13.34604-48.20545-41.06036-50.48877-69.32072-.06481-.80215-1.33422-1.3395.50905-1.18172,15.9952,18.24243,35.10587,33.4143,54.95798,47.24931,11.7699,8.20249,24.89901,15.44797,36.30005,23.9393,1.58047,1.17711,16.05394,12.90757,13.99724,14.76178l-10.82283-.00323,26.70399,1.71587,8.49159-.35496v6.09867l-33.16503-2.03106,8.10519,2.36214c-7.48724,7.70042-20.31234,10.55167-30.75458,11.19627-46.89056,2.89453-95.94976-22.3345-126.937-56.19982,38.24456,13.07871,76.02073,27.80343,115.73353,36.21162,2.31926.49105,5.01498,1.20583,7.29996,1.50448.7361.09621,2.3311.75057,2.1789-.48875-38.37747-9.18955-73.09154-30.8704-99.83404-59.56676-1.10094.67623.22518,1.49606.67493,2.03263,4.17875,4.98546,10.01033,9.42448,13.88038,14.87843-15.93179.93322-30.22249-8.15284-41.97578-17.91819-24.05609-19.98729-41.16754-47.82589-50.25553-77.66848-2.65181-8.70787-5.32141-18.58057-5.57594-27.5895,24.34306,36.27995,49.62262,72.26246,80.20275,103.55416l-13.40477-17.38485c-36.61649-51.29172-48.01938-117.3472-30.08709-178.06551,6.60182-22.3536,17.03878-43.78073,30.98024-62.42455,1.08381.62692-.25337,1.5184-.61265,2.09489-3.55878,5.71025-7.42538,11.15379-10.67534,17.07518-40.883,74.48832-31.82896,169.36699,25.15331,232.61323Z" style="fill: #ffb41c;"/>
      <path d="M34.22669,303.27178c-1.15235.94804-8.46284-6.60969-9.45546-7.79718-7.37263-8.82002-12.4045-22.2934-15.39506-33.3379-9.84119-36.34473-4.07676-75.00821,10.64557-109.11314,1.17647-.1621.63759,1.5386.6682,2.35695.9623,25.72799,1.0275,51.42678,3.38747,77.16432,2.17225,23.69029,5.96496,47.34578,10.14928,70.72695Z" style="fill: #ffb41c;"/>
      <path d="M97.85031,60.97402c-24.55472,40.59881-45.2988,83.31888-63.28158,127.23722-6.64657-13.27906-3.48334-30.25048.67564-43.98962,9.3852-31.00388,32.5744-63.18094,59.30548-81.47856.6487-.44404,2.71474-2.30803,3.30046-1.76904Z" style="fill: #ffb41c;"/>
      <path d="M74.83115,176.70841c-9.21111,22.48006-15.2006,45.88716-19.97625,69.69902-2.46393,12.2854-3.94424,25.08227-6.74526,37.24977-1.31916,5.73039-2.57645,12.10147-6.09879,16.90032-17.32772-41.82438-4.94027-97.49589,32.82029-123.84912Z" style="fill: #ffb41c;"/>
      <path d="M129.65908,103.61571l-33.18008,30.0948c-3.52119,3.48111-51.00387,60.3808-53.44617,57.21131,6.61513-42.65989,43.32727-81.80219,86.62625-87.30611Z" style="fill: #ffb41c;"/>
    </g>
    <g id="Right_Wreath" data-name="Right Wreath">
      <path d="M309.32447,44.04619c9.55846,4.68173,19.82918,8.2513,29.56207,12.74084,31.47411,14.51825,59.20442,33.95665,89.21833,50.88888-.46152-2.94028-2.52531-6.1559-4.10781-8.75224-15.86483-26.02863-48.07077-44.66633-77.31785-51.283l-21.11042-3.59448h-16.24432Z" style="fill: #ffb41c;"/>
      <path d="M431.16353,379.76188l14.32481-23.23327c11.44513-24.21404,15.19681-55.05518,4.94825-80.31313-.45408-1.11909-1.29697-3.5257-2.35153-4.06843-3.18613,22.26788-9.18798,44.14339-17.09762,65.14273-7.67739,20.38274-19.07935,40.14383-21.48279,62.10083,3.69679-2.18727,6.60412-5.47307,9.79794-8.13165.51043-.42489,1.98594-1.64882,1.3665.00944-20.4249,20.44398-46.04606,36.69643-73.27206,46.53325-7.19478,2.59949-14.90131,5.22427-22.50185,6.25386l26.84808-11.38347c23.89264-13.34604,48.20545-41.06036,50.48877-69.32072.06481-.80215,1.33422-1.3395-.50905-1.18172-15.9952,18.24243-35.10587,33.4143-54.95798,47.24931-11.7699,8.20249-24.89901,15.44797-36.30005,23.9393-1.58047,1.17711-16.05394,12.90757-13.99724,14.76178l10.82283-.00323-26.70399,1.71587-8.49159-.35496v6.09867s33.16503-2.03106,33.16503-2.03106l-8.10519,2.36214c7.48724,7.70042,20.31234,10.55167,30.75458,11.19627,46.89056,2.89453,95.94976-22.3345,126.937-56.19982-38.24456,13.07871-76.02073,27.80343-115.73353,36.21162-2.31926.49105-5.01498,1.20583-7.29996,1.50448-.7361.09621-2.3311.75057-2.1789-.48875,38.37747-9.18955,73.09154-30.8704,99.83404-59.56676,1.10094.67623-.22518,1.49606-.67493,2.03263-4.17875,4.98546-10.01033,9.42448-13.88038,14.87843,15.93179.93322,30.22249-8.15284,41.97578-17.91819,24.05609-19.98729,41.16754-47.82589,50.25553-77.66848,2.65181-8.70787,5.32141-18.58057,5.57594-27.5895-24.34306,36.27995-49.62262,72.26246-80.20275,103.55416l13.40477-17.38485c36.61649-51.29172,48.01938-117.3472,30.08709-178.06551-6.60182-22.3536-17.03878-43.78073-30.98024-62.42455-1.08381.62692.25337,1.5184.61265,2.09489,3.55878,5.71025,7.42538,11.15379,10.67534,17.07518,40.883,74.48832,31.82896,169.36699-25.15331,232.61323Z" style="fill: #ffb41c;"/>
      <path d="M479.21325,303.27178c1.15235.94804,8.46284-6.60969,9.45546-7.79718,7.37263-8.82002,12.4045-22.2934,15.39506-33.3379,9.84119-36.34473,4.07676-75.00821-10.64557-109.11314-1.17647-.1621-.63759,1.5386-.6682,2.35695-.9623,25.72799-1.0275,51.42678-3.38747,77.16432-2.17225,23.69029-5.96496,47.34578-10.14928,70.72695Z" style="fill: #ffb41c;"/>
      <path d="M415.58963,60.97402c24.55472,40.59881,45.2988,83.31888,63.28158,127.23722,6.64657-13.27906,3.48334-30.25048-.67564-43.98962-9.3852-31.00388-32.5744-63.18094-59.30548-81.47856-.6487-.44404-2.71474-2.30803-3.30046-1.76904Z" style="fill: #ffb41c;"/>
      <path d="M438.60879,176.70841c9.21111,22.48006,15.2006,45.88716,19.97625,69.69902,2.46393,12.2854,3.94424,25.08227,6.74526,37.24977,1.31916,5.73039,2.57645,12.10147,6.09879,16.90032,17.32772-41.82438,4.94027-97.49589-32.82029-123.84912Z" style="fill: #ffb41c;"/>
      <path d="M383.78086,103.61571l33.18008,30.0948c3.52119,3.48111,51.00387,60.3808,53.44617,57.21131-6.61513-42.65989-43.32727-81.80219-86.62625-87.30611Z" style="fill: #ffb41c;"/>
    </g>
  </g>
</svg>